<?xml version="1.0" encoding="iso-8859-1"?><!-- Generator: Adobe Illustrator 22.1.0, SVG Export Plug-In . SVG Version: 6.00 Build 0)  --><svg fill="#4f45e5" xmlns="http://www.w3.org/2000/svg" xmlns:xlink="http://www.w3.org/1999/xlink" viewBox="0 0 24 24" width="24px" height="24px"><g id="Rounded"><circle cx="12" cy="12" r="3"/><path d="M12,4C5.142,4,1.885,9.879,1.095,11.557c-0.132,0.28-0.132,0.605,0,0.885C1.885,14.121,5.142,20,12,20c6.834,0,10.093-5.838,10.897-7.54c0.138-0.293,0.138-0.627,0-0.92C22.093,9.838,18.834,4,12,4z M12,17c-2.761,0-5-2.239-5-5s2.239-5,5-5s5,2.239,5,5S14.761,17,12,17z"/></g></svg>